<svg width="35" height="43" viewBox="0 0 35 43" fill="none" xmlns="http://www.w3.org/2000/svg">
<path d="M10.5002 1H28M10.5002 1V4.5C10.369 5.73267 10.6242 6.01358 11.5002 6H26.5C27.6568 6.01831 28.1059 5.81651 28 4.5M10.5002 1H5C3.99802 1.33353 3.63811 1.83638 3.5 3.5V15" stroke="black"/>
<path d="M28 1H32.5C33.8851 1.06127 34.303 1.40508 34.5 2.5V40.5C34.4829 41.8682 34.1748 42.4061 32.5 42.5H5.5C4.5194 42.4446 4.25653 42.3122 4 42C3.51894 41.4294 3.53168 41.0945 3.5 40.5V26.7537M9.5 29L13 30L11.7568 26.7537L4.5 19.5M9.5 29L2.41667 21.5M9.5 29L11.668 26.7537M2.41667 21.5L1 20L3 18L4.5 19.5M2.41667 21.5L4.5 19.5M10.5 11.5H26.5M10.5 15H22.5M10.5 18.5H26M6.5 17.5V4.5H10M28 4.5H32V38.5H6V29.5602" stroke="black"/>
<path d="M28 1V4.5C28 4.9 28 5 28 5" stroke="black"/>
</svg>
