<svg width="46" height="42" viewBox="0 0 46 42" fill="none" xmlns="http://www.w3.org/2000/svg">
<path d="M44.1161 20.6519L23.1344 1.62186C23.0581 1.55272 22.9419 1.55272 22.8656 1.62186L1.88385 20.6519C1.74836 20.7747 1.83529 21 2.01821 21H4.80506C4.91352 21 5.00222 21.0864 5.005 21.1949L5.495 40.3051C5.49778 40.4136 5.58648 40.5 5.69494 40.5H40.3C40.4105 40.5 40.5 40.4105 40.5 40.3V21.2C40.5 21.0895 40.5895 21 40.7 21H43.9818C44.1647 21 44.2516 20.7747 44.1161 20.6519Z" stroke="black" stroke-width="2.5"/>
<path d="M17 40.5V25.2C17 25.0895 17.0895 25 17.2 25H28.8C28.9105 25 29 25.0895 29 25.2V40.5" stroke="black" stroke-width="2.5"/>
</svg>
