<svg width="47" height="39" viewBox="0 0 47 39" fill="none" xmlns="http://www.w3.org/2000/svg">
<rect width="46" height="6" rx="3" fill="black"/>
<path d="M0 13C0 11.3431 1.34315 10 3 10H22C23.6569 10 25 11.3431 25 13C25 14.6569 23.6569 16 22 16H3C1.34315 16 0 14.6569 0 13Z" fill="black"/>
<rect y="20" width="22" height="6" rx="3" fill="black"/>
<path d="M0 34C0 32.3431 1.34315 31 3 31H17C18.6569 31 20 32.3431 20 34C20 35.6569 18.6569 37 17 37H3C1.34315 37 0 35.6569 0 34Z" fill="black"/>
<path d="M20.695 37.5057C20.0604 36.9732 19.9776 36.027 20.5101 35.3924L29.1053 25.1491C29.6378 24.5144 30.5839 24.4317 31.2185 24.9642C31.8532 25.4967 31.9359 26.4428 31.4034 27.0774L22.8082 37.3208C22.2757 37.9554 21.3296 38.0382 20.695 37.5057Z" fill="black"/>
<circle cx="36.5" cy="17.5" r="9" stroke="black" stroke-width="3"/>
</svg>
